<mxfile host="app.diagrams.net" modified="2024-01-25T13:51:35.531Z" agent="Mozilla/5.0 (Windows NT 10.0; Win64; x64) AppleWebKit/537.36 (KHTML, like Gecko) Chrome/120.0.0.0 Safari/537.36" etag="-xeAPuhzcAdhgZ_cVs61" version="22.1.18" type="device">
  <diagram name="Page-1" id="MGtMpOdDRbQmCnA_QIO8">
    <mxGraphModel dx="1970" dy="1423" grid="1" gridSize="10" guides="1" tooltips="1" connect="1" arrows="1" fold="1" page="1" pageScale="1" pageWidth="1169" pageHeight="827" math="0" shadow="0">
      <root>
        <mxCell id="0" />
        <mxCell id="1" parent="0" />
        <mxCell id="0gZvXp_FZ8SaGyPlKFIf-1" value="User" style="whiteSpace=wrap;html=1;align=center;" vertex="1" parent="1">
          <mxGeometry x="200" y="394" width="100" height="40" as="geometry" />
        </mxCell>
        <mxCell id="0gZvXp_FZ8SaGyPlKFIf-2" value="#user_id" style="ellipse;whiteSpace=wrap;html=1;align=center;" vertex="1" parent="1">
          <mxGeometry x="210" y="290" width="100" height="40" as="geometry" />
        </mxCell>
        <mxCell id="0gZvXp_FZ8SaGyPlKFIf-3" value="user_name" style="ellipse;whiteSpace=wrap;html=1;align=center;" vertex="1" parent="1">
          <mxGeometry x="90" y="320" width="100" height="40" as="geometry" />
        </mxCell>
        <mxCell id="0gZvXp_FZ8SaGyPlKFIf-4" value="user_mobile" style="ellipse;whiteSpace=wrap;html=1;align=center;" vertex="1" parent="1">
          <mxGeometry x="20" y="390" width="100" height="40" as="geometry" />
        </mxCell>
        <mxCell id="0gZvXp_FZ8SaGyPlKFIf-5" value="user_address" style="ellipse;whiteSpace=wrap;html=1;align=center;" vertex="1" parent="1">
          <mxGeometry x="105" y="510" width="95" height="40" as="geometry" />
        </mxCell>
        <mxCell id="0gZvXp_FZ8SaGyPlKFIf-6" value="user_email" style="ellipse;whiteSpace=wrap;html=1;align=center;" vertex="1" parent="1">
          <mxGeometry x="25" y="450" width="95" height="40" as="geometry" />
        </mxCell>
        <mxCell id="0gZvXp_FZ8SaGyPlKFIf-17" value="" style="endArrow=none;html=1;rounded=0;exitX=0.5;exitY=1;exitDx=0;exitDy=0;entryX=0.5;entryY=0;entryDx=0;entryDy=0;" edge="1" parent="1" source="0gZvXp_FZ8SaGyPlKFIf-2" target="0gZvXp_FZ8SaGyPlKFIf-1">
          <mxGeometry relative="1" as="geometry">
            <mxPoint x="340" y="460" as="sourcePoint" />
            <mxPoint x="500" y="460" as="targetPoint" />
          </mxGeometry>
        </mxCell>
        <mxCell id="0gZvXp_FZ8SaGyPlKFIf-18" value="" style="endArrow=none;html=1;rounded=0;exitX=0.5;exitY=1;exitDx=0;exitDy=0;entryX=0;entryY=0;entryDx=0;entryDy=0;" edge="1" parent="1" source="0gZvXp_FZ8SaGyPlKFIf-3" target="0gZvXp_FZ8SaGyPlKFIf-1">
          <mxGeometry relative="1" as="geometry">
            <mxPoint x="170" y="370" as="sourcePoint" />
            <mxPoint x="160" y="434" as="targetPoint" />
          </mxGeometry>
        </mxCell>
        <mxCell id="0gZvXp_FZ8SaGyPlKFIf-19" value="" style="endArrow=none;html=1;rounded=0;exitX=1;exitY=0.5;exitDx=0;exitDy=0;entryX=0;entryY=0.5;entryDx=0;entryDy=0;" edge="1" parent="1" source="0gZvXp_FZ8SaGyPlKFIf-4" target="0gZvXp_FZ8SaGyPlKFIf-1">
          <mxGeometry relative="1" as="geometry">
            <mxPoint x="380" y="394" as="sourcePoint" />
            <mxPoint x="370" y="458" as="targetPoint" />
          </mxGeometry>
        </mxCell>
        <mxCell id="0gZvXp_FZ8SaGyPlKFIf-20" value="" style="endArrow=none;html=1;rounded=0;exitX=1;exitY=0.5;exitDx=0;exitDy=0;entryX=0;entryY=1;entryDx=0;entryDy=0;" edge="1" parent="1" source="0gZvXp_FZ8SaGyPlKFIf-6" target="0gZvXp_FZ8SaGyPlKFIf-1">
          <mxGeometry relative="1" as="geometry">
            <mxPoint x="400" y="394" as="sourcePoint" />
            <mxPoint x="390" y="458" as="targetPoint" />
          </mxGeometry>
        </mxCell>
        <mxCell id="0gZvXp_FZ8SaGyPlKFIf-21" value="" style="endArrow=none;html=1;rounded=0;exitX=0.25;exitY=1;exitDx=0;exitDy=0;entryX=0.5;entryY=0;entryDx=0;entryDy=0;" edge="1" parent="1" source="0gZvXp_FZ8SaGyPlKFIf-1" target="0gZvXp_FZ8SaGyPlKFIf-5">
          <mxGeometry relative="1" as="geometry">
            <mxPoint x="430" y="394" as="sourcePoint" />
            <mxPoint x="420" y="458" as="targetPoint" />
          </mxGeometry>
        </mxCell>
        <mxCell id="0gZvXp_FZ8SaGyPlKFIf-23" value="" style="endArrow=none;html=1;rounded=0;exitX=0;exitY=0.5;exitDx=0;exitDy=0;entryX=1;entryY=0.5;entryDx=0;entryDy=0;" edge="1" parent="1" source="0gZvXp_FZ8SaGyPlKFIf-24" target="0gZvXp_FZ8SaGyPlKFIf-1">
          <mxGeometry relative="1" as="geometry">
            <mxPoint x="570" y="240" as="sourcePoint" />
            <mxPoint x="560" y="304" as="targetPoint" />
          </mxGeometry>
        </mxCell>
        <mxCell id="0gZvXp_FZ8SaGyPlKFIf-24" value="Has" style="shape=rhombus;perimeter=rhombusPerimeter;whiteSpace=wrap;html=1;align=center;" vertex="1" parent="1">
          <mxGeometry x="440" y="384" width="120" height="60" as="geometry" />
        </mxCell>
        <mxCell id="0gZvXp_FZ8SaGyPlKFIf-26" value="Login" style="whiteSpace=wrap;html=1;align=center;" vertex="1" parent="1">
          <mxGeometry x="450" y="230" width="100" height="40" as="geometry" />
        </mxCell>
        <mxCell id="0gZvXp_FZ8SaGyPlKFIf-27" value="Roles" style="whiteSpace=wrap;html=1;align=center;" vertex="1" parent="1">
          <mxGeometry x="700" y="390" width="100" height="40" as="geometry" />
        </mxCell>
        <mxCell id="0gZvXp_FZ8SaGyPlKFIf-28" value="" style="endArrow=none;html=1;rounded=0;exitX=0;exitY=0.5;exitDx=0;exitDy=0;entryX=1;entryY=0.5;entryDx=0;entryDy=0;" edge="1" parent="1" source="0gZvXp_FZ8SaGyPlKFIf-27" target="0gZvXp_FZ8SaGyPlKFIf-24">
          <mxGeometry relative="1" as="geometry">
            <mxPoint x="710" y="370" as="sourcePoint" />
            <mxPoint x="570" y="370" as="targetPoint" />
          </mxGeometry>
        </mxCell>
        <mxCell id="0gZvXp_FZ8SaGyPlKFIf-29" value="" style="endArrow=none;html=1;rounded=0;exitX=0.5;exitY=1;exitDx=0;exitDy=0;" edge="1" parent="1" source="0gZvXp_FZ8SaGyPlKFIf-26" target="0gZvXp_FZ8SaGyPlKFIf-24">
          <mxGeometry relative="1" as="geometry">
            <mxPoint x="400" y="420" as="sourcePoint" />
            <mxPoint x="560" y="420" as="targetPoint" />
          </mxGeometry>
        </mxCell>
        <mxCell id="0gZvXp_FZ8SaGyPlKFIf-34" value="" style="endArrow=none;html=1;rounded=0;entryX=0;entryY=0.5;entryDx=0;entryDy=0;exitX=0.75;exitY=0;exitDx=0;exitDy=0;" edge="1" parent="1" source="0gZvXp_FZ8SaGyPlKFIf-26" target="0gZvXp_FZ8SaGyPlKFIf-42">
          <mxGeometry relative="1" as="geometry">
            <mxPoint x="380" y="320" as="sourcePoint" />
            <mxPoint x="559.999999999999" y="180" as="targetPoint" />
          </mxGeometry>
        </mxCell>
        <mxCell id="0gZvXp_FZ8SaGyPlKFIf-35" value="" style="endArrow=none;html=1;rounded=0;entryX=0.5;entryY=1;entryDx=0;entryDy=0;exitX=0.5;exitY=0;exitDx=0;exitDy=0;" edge="1" parent="1" source="0gZvXp_FZ8SaGyPlKFIf-26" target="0gZvXp_FZ8SaGyPlKFIf-41">
          <mxGeometry relative="1" as="geometry">
            <mxPoint x="380" y="320" as="sourcePoint" />
            <mxPoint x="500" y="140" as="targetPoint" />
          </mxGeometry>
        </mxCell>
        <mxCell id="0gZvXp_FZ8SaGyPlKFIf-36" value="" style="endArrow=none;html=1;rounded=0;entryX=0;entryY=0.5;entryDx=0;entryDy=0;exitX=1;exitY=0.5;exitDx=0;exitDy=0;" edge="1" parent="1" source="0gZvXp_FZ8SaGyPlKFIf-26" target="0gZvXp_FZ8SaGyPlKFIf-43">
          <mxGeometry relative="1" as="geometry">
            <mxPoint x="380" y="320" as="sourcePoint" />
            <mxPoint x="585.0000000000001" y="240.00000000000006" as="targetPoint" />
          </mxGeometry>
        </mxCell>
        <mxCell id="0gZvXp_FZ8SaGyPlKFIf-37" value="" style="endArrow=none;html=1;rounded=0;entryX=0.5;entryY=1;entryDx=0;entryDy=0;exitX=0;exitY=0.5;exitDx=0;exitDy=0;" edge="1" parent="1" source="0gZvXp_FZ8SaGyPlKFIf-26" target="0gZvXp_FZ8SaGyPlKFIf-40">
          <mxGeometry relative="1" as="geometry">
            <mxPoint x="380" y="320" as="sourcePoint" />
            <mxPoint x="390" y="200" as="targetPoint" />
          </mxGeometry>
        </mxCell>
        <mxCell id="0gZvXp_FZ8SaGyPlKFIf-40" value="#login_id" style="ellipse;whiteSpace=wrap;html=1;align=center;" vertex="1" parent="1">
          <mxGeometry x="340" y="160" width="100" height="40" as="geometry" />
        </mxCell>
        <mxCell id="0gZvXp_FZ8SaGyPlKFIf-41" value="login_role_id" style="ellipse;whiteSpace=wrap;html=1;align=center;" vertex="1" parent="1">
          <mxGeometry x="450" y="120" width="100" height="40" as="geometry" />
        </mxCell>
        <mxCell id="0gZvXp_FZ8SaGyPlKFIf-42" value="login_username" style="ellipse;whiteSpace=wrap;html=1;align=center;" vertex="1" parent="1">
          <mxGeometry x="560" y="160" width="100" height="40" as="geometry" />
        </mxCell>
        <mxCell id="0gZvXp_FZ8SaGyPlKFIf-43" value="user_password" style="ellipse;whiteSpace=wrap;html=1;align=center;" vertex="1" parent="1">
          <mxGeometry x="590" y="220" width="100" height="40" as="geometry" />
        </mxCell>
        <mxCell id="0gZvXp_FZ8SaGyPlKFIf-44" value="role_decs" style="ellipse;whiteSpace=wrap;html=1;align=center;" vertex="1" parent="1">
          <mxGeometry x="800" y="460" width="100" height="40" as="geometry" />
        </mxCell>
        <mxCell id="0gZvXp_FZ8SaGyPlKFIf-45" value="#role_id" style="ellipse;whiteSpace=wrap;html=1;align=center;" vertex="1" parent="1">
          <mxGeometry x="800" y="320" width="100" height="40" as="geometry" />
        </mxCell>
        <mxCell id="0gZvXp_FZ8SaGyPlKFIf-46" value="role_name" style="ellipse;whiteSpace=wrap;html=1;align=center;" vertex="1" parent="1">
          <mxGeometry x="840" y="394" width="100" height="40" as="geometry" />
        </mxCell>
        <mxCell id="0gZvXp_FZ8SaGyPlKFIf-47" value="" style="endArrow=none;html=1;rounded=0;entryX=0.5;entryY=0;entryDx=0;entryDy=0;" edge="1" parent="1" target="0gZvXp_FZ8SaGyPlKFIf-44">
          <mxGeometry relative="1" as="geometry">
            <mxPoint x="800" y="430" as="sourcePoint" />
            <mxPoint x="890" y="384" as="targetPoint" />
          </mxGeometry>
        </mxCell>
        <mxCell id="0gZvXp_FZ8SaGyPlKFIf-48" value="" style="endArrow=none;html=1;rounded=0;entryX=0;entryY=0.5;entryDx=0;entryDy=0;exitX=1;exitY=0.5;exitDx=0;exitDy=0;" edge="1" parent="1" source="0gZvXp_FZ8SaGyPlKFIf-27" target="0gZvXp_FZ8SaGyPlKFIf-46">
          <mxGeometry relative="1" as="geometry">
            <mxPoint x="730" y="380" as="sourcePoint" />
            <mxPoint x="890" y="380" as="targetPoint" />
          </mxGeometry>
        </mxCell>
        <mxCell id="0gZvXp_FZ8SaGyPlKFIf-49" value="" style="endArrow=none;html=1;rounded=0;entryX=0;entryY=0.5;entryDx=0;entryDy=0;exitX=0.5;exitY=0;exitDx=0;exitDy=0;" edge="1" parent="1" source="0gZvXp_FZ8SaGyPlKFIf-27" target="0gZvXp_FZ8SaGyPlKFIf-45">
          <mxGeometry relative="1" as="geometry">
            <mxPoint x="730" y="380" as="sourcePoint" />
            <mxPoint x="890" y="380" as="targetPoint" />
          </mxGeometry>
        </mxCell>
        <mxCell id="0gZvXp_FZ8SaGyPlKFIf-50" value="Permission" style="whiteSpace=wrap;html=1;align=center;" vertex="1" parent="1">
          <mxGeometry x="700" y="580" width="100" height="40" as="geometry" />
        </mxCell>
        <mxCell id="0gZvXp_FZ8SaGyPlKFIf-51" value="per_module" style="ellipse;whiteSpace=wrap;html=1;align=center;" vertex="1" parent="1">
          <mxGeometry x="840" y="640" width="100" height="40" as="geometry" />
        </mxCell>
        <mxCell id="0gZvXp_FZ8SaGyPlKFIf-52" value="#per_id" style="ellipse;whiteSpace=wrap;html=1;align=center;" vertex="1" parent="1">
          <mxGeometry x="800" y="530" width="100" height="40" as="geometry" />
        </mxCell>
        <mxCell id="0gZvXp_FZ8SaGyPlKFIf-53" value="per_role_id" style="ellipse;whiteSpace=wrap;html=1;align=center;" vertex="1" parent="1">
          <mxGeometry x="830" y="580" width="100" height="40" as="geometry" />
        </mxCell>
        <mxCell id="0gZvXp_FZ8SaGyPlKFIf-54" value="" style="endArrow=none;html=1;rounded=0;" edge="1" target="0gZvXp_FZ8SaGyPlKFIf-51" parent="1">
          <mxGeometry relative="1" as="geometry">
            <mxPoint x="800" y="620" as="sourcePoint" />
            <mxPoint x="890" y="574" as="targetPoint" />
          </mxGeometry>
        </mxCell>
        <mxCell id="0gZvXp_FZ8SaGyPlKFIf-55" value="" style="endArrow=none;html=1;rounded=0;entryX=0;entryY=0.5;entryDx=0;entryDy=0;exitX=1;exitY=0.5;exitDx=0;exitDy=0;" edge="1" source="0gZvXp_FZ8SaGyPlKFIf-50" target="0gZvXp_FZ8SaGyPlKFIf-53" parent="1">
          <mxGeometry relative="1" as="geometry">
            <mxPoint x="730" y="570" as="sourcePoint" />
            <mxPoint x="890" y="570" as="targetPoint" />
          </mxGeometry>
        </mxCell>
        <mxCell id="0gZvXp_FZ8SaGyPlKFIf-56" value="" style="endArrow=none;html=1;rounded=0;entryX=0;entryY=0.5;entryDx=0;entryDy=0;exitX=0.5;exitY=0;exitDx=0;exitDy=0;" edge="1" source="0gZvXp_FZ8SaGyPlKFIf-50" target="0gZvXp_FZ8SaGyPlKFIf-52" parent="1">
          <mxGeometry relative="1" as="geometry">
            <mxPoint x="730" y="570" as="sourcePoint" />
            <mxPoint x="890" y="570" as="targetPoint" />
          </mxGeometry>
        </mxCell>
        <mxCell id="0gZvXp_FZ8SaGyPlKFIf-57" value="" style="endArrow=none;html=1;rounded=0;exitX=0.5;exitY=1;exitDx=0;exitDy=0;entryX=0.5;entryY=0;entryDx=0;entryDy=0;" edge="1" target="0gZvXp_FZ8SaGyPlKFIf-58" parent="1" source="0gZvXp_FZ8SaGyPlKFIf-50">
          <mxGeometry relative="1" as="geometry">
            <mxPoint x="680" y="640" as="sourcePoint" />
            <mxPoint x="770" y="594" as="targetPoint" />
          </mxGeometry>
        </mxCell>
        <mxCell id="0gZvXp_FZ8SaGyPlKFIf-58" value="per_name" style="ellipse;whiteSpace=wrap;html=1;align=center;" vertex="1" parent="1">
          <mxGeometry x="720" y="660" width="100" height="40" as="geometry" />
        </mxCell>
        <mxCell id="0gZvXp_FZ8SaGyPlKFIf-59" value="" style="endArrow=none;html=1;rounded=0;exitX=0.5;exitY=1;exitDx=0;exitDy=0;entryX=0;entryY=0.5;entryDx=0;entryDy=0;" edge="1" parent="1" source="0gZvXp_FZ8SaGyPlKFIf-24" target="0gZvXp_FZ8SaGyPlKFIf-50">
          <mxGeometry relative="1" as="geometry">
            <mxPoint x="670" y="550" as="sourcePoint" />
            <mxPoint x="830" y="550" as="targetPoint" />
            <Array as="points">
              <mxPoint x="500" y="600" />
            </Array>
          </mxGeometry>
        </mxCell>
        <mxCell id="0gZvXp_FZ8SaGyPlKFIf-60" value="Manage" style="shape=rhombus;perimeter=rhombusPerimeter;whiteSpace=wrap;html=1;align=center;" vertex="1" parent="1">
          <mxGeometry x="450" y="767" width="120" height="60" as="geometry" />
        </mxCell>
        <mxCell id="0gZvXp_FZ8SaGyPlKFIf-61" value="" style="endArrow=none;html=1;rounded=0;exitX=0.5;exitY=1;exitDx=0;exitDy=0;entryX=0.5;entryY=0;entryDx=0;entryDy=0;" edge="1" parent="1" source="0gZvXp_FZ8SaGyPlKFIf-1" target="0gZvXp_FZ8SaGyPlKFIf-60">
          <mxGeometry relative="1" as="geometry">
            <mxPoint x="290" y="640" as="sourcePoint" />
            <mxPoint x="450" y="640" as="targetPoint" />
            <Array as="points">
              <mxPoint x="250" y="680" />
              <mxPoint x="510" y="680" />
            </Array>
          </mxGeometry>
        </mxCell>
        <mxCell id="0gZvXp_FZ8SaGyPlKFIf-62" value="emp_name" style="ellipse;whiteSpace=wrap;html=1;align=center;" vertex="1" parent="1">
          <mxGeometry x="40" y="750" width="100" height="40" as="geometry" />
        </mxCell>
        <mxCell id="0gZvXp_FZ8SaGyPlKFIf-63" value="emp_address" style="ellipse;whiteSpace=wrap;html=1;align=center;" vertex="1" parent="1">
          <mxGeometry x="92.5" y="930" width="95" height="40" as="geometry" />
        </mxCell>
        <mxCell id="0gZvXp_FZ8SaGyPlKFIf-64" value="" style="endArrow=none;html=1;rounded=0;exitX=0.5;exitY=1;exitDx=0;exitDy=0;entryX=0.5;entryY=0;entryDx=0;entryDy=0;" edge="1" source="0gZvXp_FZ8SaGyPlKFIf-70" target="0gZvXp_FZ8SaGyPlKFIf-69" parent="1">
          <mxGeometry relative="1" as="geometry">
            <mxPoint x="327.5" y="880" as="sourcePoint" />
            <mxPoint x="487.5" y="880" as="targetPoint" />
          </mxGeometry>
        </mxCell>
        <mxCell id="0gZvXp_FZ8SaGyPlKFIf-65" value="" style="endArrow=none;html=1;rounded=0;exitX=0.5;exitY=1;exitDx=0;exitDy=0;entryX=0;entryY=0;entryDx=0;entryDy=0;" edge="1" source="0gZvXp_FZ8SaGyPlKFIf-62" target="0gZvXp_FZ8SaGyPlKFIf-69" parent="1">
          <mxGeometry relative="1" as="geometry">
            <mxPoint x="157.5" y="790" as="sourcePoint" />
            <mxPoint x="147.5" y="854" as="targetPoint" />
          </mxGeometry>
        </mxCell>
        <mxCell id="0gZvXp_FZ8SaGyPlKFIf-66" value="" style="endArrow=none;html=1;rounded=0;exitX=1;exitY=0.5;exitDx=0;exitDy=0;entryX=0;entryY=0.5;entryDx=0;entryDy=0;" edge="1" source="0gZvXp_FZ8SaGyPlKFIf-71" target="0gZvXp_FZ8SaGyPlKFIf-69" parent="1">
          <mxGeometry relative="1" as="geometry">
            <mxPoint x="367.5" y="814" as="sourcePoint" />
            <mxPoint x="357.5" y="878" as="targetPoint" />
          </mxGeometry>
        </mxCell>
        <mxCell id="0gZvXp_FZ8SaGyPlKFIf-67" value="" style="endArrow=none;html=1;rounded=0;exitX=1;exitY=0.5;exitDx=0;exitDy=0;entryX=0;entryY=1;entryDx=0;entryDy=0;" edge="1" source="0gZvXp_FZ8SaGyPlKFIf-72" target="0gZvXp_FZ8SaGyPlKFIf-69" parent="1">
          <mxGeometry relative="1" as="geometry">
            <mxPoint x="387.5" y="814" as="sourcePoint" />
            <mxPoint x="377.5" y="878" as="targetPoint" />
          </mxGeometry>
        </mxCell>
        <mxCell id="0gZvXp_FZ8SaGyPlKFIf-68" value="" style="endArrow=none;html=1;rounded=0;exitX=0.25;exitY=1;exitDx=0;exitDy=0;entryX=0.5;entryY=0;entryDx=0;entryDy=0;" edge="1" source="0gZvXp_FZ8SaGyPlKFIf-69" target="0gZvXp_FZ8SaGyPlKFIf-63" parent="1">
          <mxGeometry relative="1" as="geometry">
            <mxPoint x="417.5" y="814" as="sourcePoint" />
            <mxPoint x="407.5" y="878" as="targetPoint" />
          </mxGeometry>
        </mxCell>
        <mxCell id="0gZvXp_FZ8SaGyPlKFIf-69" value="User" style="whiteSpace=wrap;html=1;align=center;" vertex="1" parent="1">
          <mxGeometry x="187.5" y="814" width="100" height="40" as="geometry" />
        </mxCell>
        <mxCell id="0gZvXp_FZ8SaGyPlKFIf-70" value="#enp_id" style="ellipse;whiteSpace=wrap;html=1;align=center;" vertex="1" parent="1">
          <mxGeometry x="197.5" y="710" width="100" height="40" as="geometry" />
        </mxCell>
        <mxCell id="0gZvXp_FZ8SaGyPlKFIf-71" value="emp_mobile" style="ellipse;whiteSpace=wrap;html=1;align=center;" vertex="1" parent="1">
          <mxGeometry x="7.5" y="810" width="100" height="40" as="geometry" />
        </mxCell>
        <mxCell id="0gZvXp_FZ8SaGyPlKFIf-72" value="emp_email" style="ellipse;whiteSpace=wrap;html=1;align=center;" vertex="1" parent="1">
          <mxGeometry x="12.5" y="870" width="95" height="40" as="geometry" />
        </mxCell>
        <mxCell id="0gZvXp_FZ8SaGyPlKFIf-73" value="" style="endArrow=none;html=1;rounded=0;entryX=0;entryY=0.5;entryDx=0;entryDy=0;exitX=1;exitY=0.5;exitDx=0;exitDy=0;" edge="1" parent="1" source="0gZvXp_FZ8SaGyPlKFIf-69" target="0gZvXp_FZ8SaGyPlKFIf-60">
          <mxGeometry relative="1" as="geometry">
            <mxPoint x="120" y="940" as="sourcePoint" />
            <mxPoint x="280" y="940" as="targetPoint" />
            <Array as="points">
              <mxPoint x="380" y="834" />
              <mxPoint x="380" y="797" />
            </Array>
          </mxGeometry>
        </mxCell>
        <mxCell id="0gZvXp_FZ8SaGyPlKFIf-74" value="emp_pass" style="ellipse;whiteSpace=wrap;html=1;align=center;" vertex="1" parent="1">
          <mxGeometry x="95" y="700" width="95" height="40" as="geometry" />
        </mxCell>
        <mxCell id="0gZvXp_FZ8SaGyPlKFIf-75" value="" style="endArrow=none;html=1;rounded=0;exitX=0.5;exitY=1;exitDx=0;exitDy=0;entryX=0.25;entryY=0;entryDx=0;entryDy=0;" edge="1" parent="1" source="0gZvXp_FZ8SaGyPlKFIf-74" target="0gZvXp_FZ8SaGyPlKFIf-69">
          <mxGeometry relative="1" as="geometry">
            <mxPoint x="120" y="940" as="sourcePoint" />
            <mxPoint x="280" y="940" as="targetPoint" />
          </mxGeometry>
        </mxCell>
        <mxCell id="0gZvXp_FZ8SaGyPlKFIf-76" value="src_title" style="ellipse;whiteSpace=wrap;html=1;align=center;" vertex="1" parent="1">
          <mxGeometry x="870" y="840" width="100" height="40" as="geometry" />
        </mxCell>
        <mxCell id="0gZvXp_FZ8SaGyPlKFIf-77" value="src_job_id" style="ellipse;whiteSpace=wrap;html=1;align=center;" vertex="1" parent="1">
          <mxGeometry x="830" y="730" width="100" height="40" as="geometry" />
        </mxCell>
        <mxCell id="0gZvXp_FZ8SaGyPlKFIf-78" value="#src_id" style="ellipse;whiteSpace=wrap;html=1;align=center;" vertex="1" parent="1">
          <mxGeometry x="860" y="780" width="100" height="40" as="geometry" />
        </mxCell>
        <mxCell id="0gZvXp_FZ8SaGyPlKFIf-79" value="" style="endArrow=none;html=1;rounded=0;" edge="1" target="0gZvXp_FZ8SaGyPlKFIf-76" parent="1">
          <mxGeometry relative="1" as="geometry">
            <mxPoint x="830" y="820" as="sourcePoint" />
            <mxPoint x="920" y="774" as="targetPoint" />
          </mxGeometry>
        </mxCell>
        <mxCell id="0gZvXp_FZ8SaGyPlKFIf-80" value="" style="endArrow=none;html=1;rounded=0;entryX=0;entryY=0.5;entryDx=0;entryDy=0;exitX=1;exitY=0.5;exitDx=0;exitDy=0;" edge="1" source="0gZvXp_FZ8SaGyPlKFIf-84" target="0gZvXp_FZ8SaGyPlKFIf-78" parent="1">
          <mxGeometry relative="1" as="geometry">
            <mxPoint x="760" y="770" as="sourcePoint" />
            <mxPoint x="920" y="770" as="targetPoint" />
          </mxGeometry>
        </mxCell>
        <mxCell id="0gZvXp_FZ8SaGyPlKFIf-81" value="" style="endArrow=none;html=1;rounded=0;entryX=0;entryY=0.5;entryDx=0;entryDy=0;exitX=0.5;exitY=0;exitDx=0;exitDy=0;" edge="1" source="0gZvXp_FZ8SaGyPlKFIf-84" target="0gZvXp_FZ8SaGyPlKFIf-77" parent="1">
          <mxGeometry relative="1" as="geometry">
            <mxPoint x="760" y="770" as="sourcePoint" />
            <mxPoint x="920" y="770" as="targetPoint" />
          </mxGeometry>
        </mxCell>
        <mxCell id="0gZvXp_FZ8SaGyPlKFIf-82" value="" style="endArrow=none;html=1;rounded=0;exitX=0.5;exitY=1;exitDx=0;exitDy=0;entryX=0.5;entryY=0;entryDx=0;entryDy=0;" edge="1" source="0gZvXp_FZ8SaGyPlKFIf-84" target="0gZvXp_FZ8SaGyPlKFIf-83" parent="1">
          <mxGeometry relative="1" as="geometry">
            <mxPoint x="710" y="840" as="sourcePoint" />
            <mxPoint x="800" y="794" as="targetPoint" />
          </mxGeometry>
        </mxCell>
        <mxCell id="0gZvXp_FZ8SaGyPlKFIf-83" value="src_typr" style="ellipse;whiteSpace=wrap;html=1;align=center;" vertex="1" parent="1">
          <mxGeometry x="750" y="860" width="100" height="40" as="geometry" />
        </mxCell>
        <mxCell id="0gZvXp_FZ8SaGyPlKFIf-84" value="Search" style="whiteSpace=wrap;html=1;align=center;" vertex="1" parent="1">
          <mxGeometry x="730" y="780" width="100" height="40" as="geometry" />
        </mxCell>
        <mxCell id="0gZvXp_FZ8SaGyPlKFIf-85" value="job_type" style="ellipse;whiteSpace=wrap;html=1;align=center;" vertex="1" parent="1">
          <mxGeometry x="600" y="990" width="100" height="40" as="geometry" />
        </mxCell>
        <mxCell id="0gZvXp_FZ8SaGyPlKFIf-86" value="#job_id" style="ellipse;whiteSpace=wrap;html=1;align=center;" vertex="1" parent="1">
          <mxGeometry x="560" y="880" width="100" height="40" as="geometry" />
        </mxCell>
        <mxCell id="0gZvXp_FZ8SaGyPlKFIf-87" value="job_emp_id" style="ellipse;whiteSpace=wrap;html=1;align=center;" vertex="1" parent="1">
          <mxGeometry x="590" y="930" width="100" height="40" as="geometry" />
        </mxCell>
        <mxCell id="0gZvXp_FZ8SaGyPlKFIf-88" value="" style="endArrow=none;html=1;rounded=0;" edge="1" target="0gZvXp_FZ8SaGyPlKFIf-85" parent="1">
          <mxGeometry relative="1" as="geometry">
            <mxPoint x="560" y="970" as="sourcePoint" />
            <mxPoint x="650" y="924" as="targetPoint" />
          </mxGeometry>
        </mxCell>
        <mxCell id="0gZvXp_FZ8SaGyPlKFIf-89" value="" style="endArrow=none;html=1;rounded=0;entryX=0;entryY=0.5;entryDx=0;entryDy=0;exitX=1;exitY=0.5;exitDx=0;exitDy=0;" edge="1" source="0gZvXp_FZ8SaGyPlKFIf-93" target="0gZvXp_FZ8SaGyPlKFIf-87" parent="1">
          <mxGeometry relative="1" as="geometry">
            <mxPoint x="490" y="920" as="sourcePoint" />
            <mxPoint x="650" y="920" as="targetPoint" />
          </mxGeometry>
        </mxCell>
        <mxCell id="0gZvXp_FZ8SaGyPlKFIf-90" value="" style="endArrow=none;html=1;rounded=0;entryX=0;entryY=0.5;entryDx=0;entryDy=0;exitX=0.5;exitY=0;exitDx=0;exitDy=0;" edge="1" source="0gZvXp_FZ8SaGyPlKFIf-93" target="0gZvXp_FZ8SaGyPlKFIf-86" parent="1">
          <mxGeometry relative="1" as="geometry">
            <mxPoint x="490" y="920" as="sourcePoint" />
            <mxPoint x="650" y="920" as="targetPoint" />
          </mxGeometry>
        </mxCell>
        <mxCell id="0gZvXp_FZ8SaGyPlKFIf-91" value="" style="endArrow=none;html=1;rounded=0;exitX=0.5;exitY=1;exitDx=0;exitDy=0;entryX=0.5;entryY=0;entryDx=0;entryDy=0;" edge="1" source="0gZvXp_FZ8SaGyPlKFIf-93" target="0gZvXp_FZ8SaGyPlKFIf-92" parent="1">
          <mxGeometry relative="1" as="geometry">
            <mxPoint x="440" y="990" as="sourcePoint" />
            <mxPoint x="530" y="944" as="targetPoint" />
          </mxGeometry>
        </mxCell>
        <mxCell id="0gZvXp_FZ8SaGyPlKFIf-92" value="job_name" style="ellipse;whiteSpace=wrap;html=1;align=center;" vertex="1" parent="1">
          <mxGeometry x="480" y="1010" width="100" height="40" as="geometry" />
        </mxCell>
        <mxCell id="0gZvXp_FZ8SaGyPlKFIf-93" value="Job" style="whiteSpace=wrap;html=1;align=center;" vertex="1" parent="1">
          <mxGeometry x="460" y="930" width="100" height="40" as="geometry" />
        </mxCell>
        <mxCell id="0gZvXp_FZ8SaGyPlKFIf-95" value="" style="endArrow=none;html=1;rounded=0;entryX=0;entryY=0.5;entryDx=0;entryDy=0;exitX=1;exitY=0.5;exitDx=0;exitDy=0;" edge="1" parent="1" source="0gZvXp_FZ8SaGyPlKFIf-60" target="0gZvXp_FZ8SaGyPlKFIf-84">
          <mxGeometry relative="1" as="geometry">
            <mxPoint x="570" y="800" as="sourcePoint" />
            <mxPoint x="700" y="800" as="targetPoint" />
          </mxGeometry>
        </mxCell>
        <mxCell id="0gZvXp_FZ8SaGyPlKFIf-96" value="" style="endArrow=none;html=1;rounded=0;exitX=0.5;exitY=1;exitDx=0;exitDy=0;entryX=0.5;entryY=0;entryDx=0;entryDy=0;" edge="1" parent="1" source="0gZvXp_FZ8SaGyPlKFIf-60" target="0gZvXp_FZ8SaGyPlKFIf-93">
          <mxGeometry relative="1" as="geometry">
            <mxPoint x="490" y="880" as="sourcePoint" />
            <mxPoint x="650" y="880" as="targetPoint" />
            <Array as="points" />
          </mxGeometry>
        </mxCell>
        <mxCell id="0gZvXp_FZ8SaGyPlKFIf-97" value="Has" style="shape=rhombus;perimeter=rhombusPerimeter;whiteSpace=wrap;html=1;align=center;" vertex="1" parent="1">
          <mxGeometry x="250" y="1000" width="120" height="60" as="geometry" />
        </mxCell>
        <mxCell id="0gZvXp_FZ8SaGyPlKFIf-98" value="" style="endArrow=none;html=1;rounded=0;exitX=0.5;exitY=0;exitDx=0;exitDy=0;entryX=0;entryY=0.5;entryDx=0;entryDy=0;" edge="1" parent="1" source="0gZvXp_FZ8SaGyPlKFIf-97" target="0gZvXp_FZ8SaGyPlKFIf-93">
          <mxGeometry relative="1" as="geometry">
            <mxPoint x="360" y="1030" as="sourcePoint" />
            <mxPoint x="520" y="1030" as="targetPoint" />
            <Array as="points">
              <mxPoint x="310" y="950" />
            </Array>
          </mxGeometry>
        </mxCell>
        <mxCell id="0gZvXp_FZ8SaGyPlKFIf-99" value="Registration" style="whiteSpace=wrap;html=1;align=center;" vertex="1" parent="1">
          <mxGeometry x="260" y="1110" width="100" height="40" as="geometry" />
        </mxCell>
        <mxCell id="0gZvXp_FZ8SaGyPlKFIf-100" value="#reg_id" style="ellipse;whiteSpace=wrap;html=1;align=center;" vertex="1" parent="1">
          <mxGeometry x="130" y="1150" width="100" height="40" as="geometry" />
        </mxCell>
        <mxCell id="0gZvXp_FZ8SaGyPlKFIf-101" value="reg_desc" style="ellipse;whiteSpace=wrap;html=1;align=center;" vertex="1" parent="1">
          <mxGeometry x="400" y="1150" width="100" height="40" as="geometry" />
        </mxCell>
        <mxCell id="0gZvXp_FZ8SaGyPlKFIf-102" value="reg_type" style="ellipse;whiteSpace=wrap;html=1;align=center;" vertex="1" parent="1">
          <mxGeometry x="260" y="1190" width="100" height="40" as="geometry" />
        </mxCell>
        <mxCell id="0gZvXp_FZ8SaGyPlKFIf-103" value="" style="endArrow=none;html=1;rounded=0;exitX=1;exitY=0.5;exitDx=0;exitDy=0;entryX=0;entryY=0;entryDx=0;entryDy=0;" edge="1" parent="1" source="0gZvXp_FZ8SaGyPlKFIf-99" target="0gZvXp_FZ8SaGyPlKFIf-101">
          <mxGeometry relative="1" as="geometry">
            <mxPoint x="360" y="1090" as="sourcePoint" />
            <mxPoint x="520" y="1090" as="targetPoint" />
          </mxGeometry>
        </mxCell>
        <mxCell id="0gZvXp_FZ8SaGyPlKFIf-104" value="" style="endArrow=none;html=1;rounded=0;entryX=0.5;entryY=0;entryDx=0;entryDy=0;exitX=0.5;exitY=1;exitDx=0;exitDy=0;" edge="1" parent="1" source="0gZvXp_FZ8SaGyPlKFIf-99" target="0gZvXp_FZ8SaGyPlKFIf-102">
          <mxGeometry relative="1" as="geometry">
            <mxPoint x="360" y="1090" as="sourcePoint" />
            <mxPoint x="520" y="1090" as="targetPoint" />
          </mxGeometry>
        </mxCell>
        <mxCell id="0gZvXp_FZ8SaGyPlKFIf-105" value="" style="endArrow=none;html=1;rounded=0;exitX=1;exitY=0.5;exitDx=0;exitDy=0;entryX=0;entryY=1;entryDx=0;entryDy=0;" edge="1" parent="1" source="0gZvXp_FZ8SaGyPlKFIf-100" target="0gZvXp_FZ8SaGyPlKFIf-99">
          <mxGeometry relative="1" as="geometry">
            <mxPoint x="360" y="1090" as="sourcePoint" />
            <mxPoint x="280" y="1160" as="targetPoint" />
          </mxGeometry>
        </mxCell>
        <mxCell id="0gZvXp_FZ8SaGyPlKFIf-106" value="" style="endArrow=none;html=1;rounded=0;exitX=0.5;exitY=1;exitDx=0;exitDy=0;" edge="1" parent="1" source="0gZvXp_FZ8SaGyPlKFIf-97" target="0gZvXp_FZ8SaGyPlKFIf-99">
          <mxGeometry relative="1" as="geometry">
            <mxPoint x="360" y="1090" as="sourcePoint" />
            <mxPoint x="520" y="1090" as="targetPoint" />
          </mxGeometry>
        </mxCell>
      </root>
    </mxGraphModel>
  </diagram>
</mxfile>
